<svg width="24" height="24" viewBox="0 0 24 24" fill="none" xmlns="http://www.w3.org/2000/svg">
<path d="M6 18C7.43822 17.7865 8.75171 17.0629 9.70082 15.9615C10.6499 14.86 11.1714 13.454 11.17 12C11.1772 10.1748 11.8393 8.4129 13.0359 7.03466C14.2324 5.65643 15.8839 4.75346 17.69 4.49L20.28 4.12C20.21 4.04 20.15 3.96 20.07 3.88C16.81 0.619997 10.55 1.6 6.07 6.06C2.28 9.9 1 15 2.76 18.46L6 18Z" fill="#F8F8F8"/>
<path d="M12.73 12C12.7235 13.8248 12.0631 15.5869 10.8687 16.9665C9.67437 18.3462 8.02507 19.2521 6.22 19.52L3.76 19.87L3.91 20.04C7.17 23.3 13.43 22.33 17.91 17.87C21.68 14.11 23 9 21.25 5.59L17.91 6.07C16.481 6.27759 15.1733 6.98947 14.2233 8.07701C13.2733 9.16455 12.7436 10.556 12.73 12Z" fill="#F8F8F8"/>
</svg>
