<svg width="223" height="100" viewBox="0 0 223 100" fill="none" xmlns="http://www.w3.org/2000/svg">
<rect width="223" height="100" rx="20" fill="white"/>
<path d="M26.2912 68V54.9091H31.3026C32.2486 54.9091 33.0348 55.0582 33.6612 55.3565C34.2919 55.6506 34.7628 56.0533 35.0739 56.5646C35.3892 57.076 35.5469 57.6555 35.5469 58.3033C35.5469 58.8359 35.4446 59.2919 35.2401 59.6712C35.0355 60.0462 34.7607 60.3509 34.4155 60.5852C34.0703 60.8196 33.6847 60.9879 33.2585 61.0902V61.218C33.723 61.2436 34.1683 61.3864 34.5945 61.6463C35.0249 61.902 35.3764 62.2642 35.6491 62.733C35.9219 63.2017 36.0582 63.7685 36.0582 64.4332C36.0582 65.1108 35.8942 65.7202 35.5661 66.2614C35.2379 66.7983 34.7436 67.2223 34.0831 67.5334C33.4226 67.8445 32.5916 68 31.5902 68H26.2912ZM28.6626 66.0185H31.2131C32.0739 66.0185 32.6939 65.8544 33.0732 65.5263C33.4567 65.1939 33.6484 64.7678 33.6484 64.2479C33.6484 63.8601 33.5526 63.5107 33.3608 63.1996C33.169 62.8842 32.8963 62.6371 32.5426 62.4581C32.1889 62.2749 31.767 62.1832 31.277 62.1832H28.6626V66.0185ZM28.6626 60.4766H31.0085C31.4176 60.4766 31.7862 60.402 32.1143 60.2528C32.4425 60.0994 32.7003 59.8842 32.8878 59.6072C33.0795 59.326 33.1754 58.9936 33.1754 58.6101C33.1754 58.103 32.9964 57.6854 32.6385 57.3572C32.2848 57.0291 31.7585 56.8651 31.0597 56.8651H28.6626V60.4766ZM42.3656 68.1918C41.3812 68.1918 40.5311 67.9872 39.8152 67.5781C39.1035 67.1648 38.5559 66.581 38.1724 65.8267C37.7889 65.0682 37.5971 64.1754 37.5971 63.1484C37.5971 62.1385 37.7889 61.2521 38.1724 60.4893C38.5602 59.7223 39.1014 59.1257 39.796 58.6996C40.4906 58.2692 41.3066 58.054 42.2441 58.054C42.8493 58.054 43.4203 58.152 43.9572 58.348C44.4984 58.5398 44.9757 58.8381 45.389 59.2429C45.8066 59.6477 46.1348 60.1634 46.3734 60.7898C46.612 61.4119 46.7314 62.1534 46.7314 63.0142V63.7237H38.6838V62.1641H44.5133C44.5091 61.7209 44.4132 61.3267 44.2257 60.9815C44.0382 60.6321 43.7761 60.3572 43.4395 60.157C43.1071 59.9567 42.7193 59.8565 42.2761 59.8565C41.8031 59.8565 41.3876 59.9716 41.0297 60.2017C40.6717 60.4276 40.3926 60.7259 40.1923 61.0966C39.9963 61.4631 39.8961 61.8658 39.8919 62.3047V63.6662C39.8919 64.2372 39.9963 64.7273 40.2051 65.1364C40.4139 65.5412 40.7058 65.8523 41.0808 66.0696C41.4558 66.2827 41.8947 66.3892 42.3976 66.3892C42.7342 66.3892 43.0389 66.3423 43.3116 66.2486C43.5843 66.1506 43.8208 66.0078 44.0211 65.8203C44.2214 65.6328 44.3727 65.4006 44.475 65.1236L46.6355 65.3665C46.4991 65.9375 46.2392 66.4361 45.8556 66.8622C45.4764 67.2841 44.9906 67.6122 44.3983 67.8466C43.8059 68.0767 43.1284 68.1918 42.3656 68.1918ZM56.4489 60.777L54.3395 61.0071C54.2798 60.794 54.1754 60.5938 54.0263 60.4062C53.8814 60.2188 53.6854 60.0675 53.4382 59.9524C53.1911 59.8374 52.8885 59.7798 52.5305 59.7798C52.049 59.7798 51.6442 59.8842 51.3161 60.093C50.9922 60.3018 50.8324 60.5724 50.8366 60.9048C50.8324 61.1903 50.9368 61.4226 51.1499 61.6016C51.3672 61.7805 51.7251 61.9276 52.2237 62.0426L53.8984 62.4006C54.8274 62.6009 55.5178 62.9183 55.9695 63.353C56.4254 63.7876 56.6555 64.3565 56.6598 65.0597C56.6555 65.6776 56.4744 66.223 56.1165 66.696C55.7628 67.1648 55.2706 67.5312 54.6399 67.7955C54.0092 68.0597 53.2848 68.1918 52.4666 68.1918C51.2649 68.1918 50.2976 67.9403 49.5646 67.4375C48.8317 66.9304 48.3949 66.2251 48.2543 65.3217L50.5107 65.1044C50.6129 65.5476 50.8303 65.8821 51.1626 66.108C51.495 66.3338 51.9276 66.4467 52.4602 66.4467C53.0099 66.4467 53.451 66.3338 53.7834 66.108C54.12 65.8821 54.2884 65.603 54.2884 65.2706C54.2884 64.9893 54.1797 64.7571 53.9624 64.5739C53.7493 64.3906 53.4169 64.25 52.9652 64.152L51.2905 63.8004C50.3487 63.6044 49.652 63.2741 49.2003 62.8097C48.7486 62.3409 48.5249 61.7486 48.5291 61.0327C48.5249 60.4276 48.6889 59.9034 49.0213 59.4602C49.358 59.0128 49.8246 58.6676 50.4212 58.4247C51.022 58.1776 51.7145 58.054 52.4986 58.054C53.6491 58.054 54.5547 58.299 55.2152 58.7891C55.88 59.2791 56.2912 59.9418 56.4489 60.777ZM63.4705 58.1818V59.9716H57.8263V58.1818H63.4705ZM59.2198 55.8295H61.5337V65.0469C61.5337 65.358 61.5806 65.5966 61.6744 65.7628C61.7724 65.9247 61.9002 66.0355 62.0579 66.0952C62.2156 66.1548 62.3903 66.1847 62.582 66.1847C62.7269 66.1847 62.859 66.174 62.9783 66.1527C63.1019 66.1314 63.1957 66.1122 63.2596 66.0952L63.6495 67.9041C63.5259 67.9467 63.3491 67.9936 63.119 68.0447C62.8931 68.0959 62.6161 68.1257 62.288 68.1342C61.7085 68.1513 61.1864 68.0639 60.7219 67.8722C60.2575 67.6761 59.8888 67.3736 59.6161 66.9645C59.3477 66.5554 59.2156 66.044 59.2198 65.4304V55.8295ZM74.85 63.6023H76.9977L78.2697 65.2514L79.1774 66.3253L81.3571 69.125H79.0559L77.573 67.2457L76.9402 66.3509L74.85 63.6023ZM81.6703 61.4545C81.6703 62.8651 81.4061 64.0732 80.8777 65.0788C80.3535 66.0803 79.6376 66.8473 78.7299 67.38C77.8265 67.9126 76.8017 68.179 75.6554 68.179C74.5091 68.179 73.4821 67.9126 72.5744 67.38C71.671 66.843 70.9551 66.0739 70.4267 65.0724C69.9025 64.0668 69.6404 62.8608 69.6404 61.4545C69.6404 60.044 69.9025 58.8381 70.4267 57.8366C70.9551 56.831 71.671 56.0618 72.5744 55.5291C73.4821 54.9964 74.5091 54.7301 75.6554 54.7301C76.8017 54.7301 77.8265 54.9964 78.7299 55.5291C79.6376 56.0618 80.3535 56.831 80.8777 57.8366C81.4061 58.8381 81.6703 60.044 81.6703 61.4545ZM79.286 61.4545C79.286 60.4616 79.1305 59.6243 78.8194 58.9425C78.5126 58.2564 78.0865 57.7386 77.541 57.3892C76.9956 57.0355 76.367 56.8587 75.6554 56.8587C74.9437 56.8587 74.3152 57.0355 73.7697 57.3892C73.2243 57.7386 72.796 58.2564 72.4849 58.9425C72.1781 59.6243 72.0247 60.4616 72.0247 61.4545C72.0247 62.4474 72.1781 63.2869 72.4849 63.973C72.796 64.6548 73.2243 65.1726 73.7697 65.5263C74.3152 65.8757 74.9437 66.0504 75.6554 66.0504C76.367 66.0504 76.9956 65.8757 77.541 65.5263C78.0865 65.1726 78.5126 64.6548 78.8194 63.973C79.1305 63.2869 79.286 62.4474 79.286 61.4545ZM90.0854 63.8707V58.1818H92.3993V68H90.1557V66.255H90.0534C89.8319 66.8047 89.4675 67.2543 88.9604 67.6037C88.4576 67.9531 87.8375 68.1278 87.1003 68.1278C86.4569 68.1278 85.888 67.9851 85.3936 67.6996C84.9036 67.4098 84.5201 66.9901 84.2431 66.4403C83.9661 65.8864 83.8276 65.2173 83.8276 64.4332V58.1818H86.1415V64.0753C86.1415 64.6974 86.312 65.1918 86.6529 65.5582C86.9938 65.9247 87.4412 66.108 87.9952 66.108C88.3361 66.108 88.6664 66.0249 88.986 65.8587C89.3056 65.6925 89.5676 65.4453 89.7722 65.1172C89.981 64.7848 90.0854 64.3693 90.0854 63.8707ZM97.604 68.1982C96.9819 68.1982 96.4215 68.0874 95.9229 67.8658C95.4286 67.6399 95.0366 67.3075 94.7468 66.8686C94.4613 66.4297 94.3185 65.8885 94.3185 65.245C94.3185 64.6911 94.4208 64.233 94.6254 63.8707C94.8299 63.5085 95.109 63.2188 95.4627 63.0014C95.8164 62.7841 96.2148 62.62 96.658 62.5092C97.1055 62.3942 97.5678 62.3111 98.0451 62.2599C98.6204 62.2003 99.087 62.147 99.445 62.1001C99.8029 62.049 100.063 61.9723 100.225 61.87C100.391 61.7635 100.474 61.5994 100.474 61.3778V61.3395C100.474 60.858 100.331 60.4851 100.046 60.2209C99.7603 59.9567 99.3491 59.8246 98.8121 59.8246C98.2454 59.8246 97.7958 59.9482 97.4634 60.1953C97.1353 60.4425 96.9137 60.7344 96.7987 61.071L94.6381 60.7642C94.8086 60.1676 95.0898 59.669 95.4819 59.2685C95.8739 58.8636 96.3533 58.5611 96.9201 58.3608C97.4869 58.1562 98.1133 58.054 98.7994 58.054C99.2724 58.054 99.7433 58.1094 100.212 58.2202C100.681 58.331 101.109 58.5142 101.497 58.7699C101.885 59.0213 102.196 59.3643 102.43 59.799C102.669 60.2337 102.788 60.777 102.788 61.429V68H100.564V66.6513H100.487C100.346 66.924 100.148 67.1797 99.8924 67.4183C99.641 67.6527 99.3235 67.8423 98.94 67.9872C98.5607 68.1278 98.1154 68.1982 97.604 68.1982ZM98.2049 66.4979C98.6694 66.4979 99.0721 66.4062 99.413 66.223C99.7539 66.0355 100.016 65.7884 100.199 65.4815C100.387 65.1747 100.48 64.8402 100.48 64.478V63.321C100.408 63.3807 100.284 63.4361 100.11 63.4872C99.9393 63.5384 99.7475 63.5831 99.5344 63.6214C99.3214 63.6598 99.1104 63.6939 98.9016 63.7237C98.6928 63.7536 98.5117 63.7791 98.3583 63.8004C98.0131 63.8473 97.7042 63.924 97.4315 64.0305C97.1587 64.1371 96.9435 64.2862 96.7859 64.478C96.6282 64.6655 96.5494 64.9084 96.5494 65.2067C96.5494 65.6328 96.7049 65.9545 97.016 66.1719C97.3271 66.3892 97.7234 66.4979 98.2049 66.4979ZM107.429 54.9091V68H105.115V54.9091H107.429ZM109.808 68V58.1818H112.122V68H109.808ZM110.971 56.7884C110.605 56.7884 110.29 56.6669 110.025 56.424C109.761 56.1768 109.629 55.8807 109.629 55.5355C109.629 55.1861 109.761 54.8899 110.025 54.647C110.29 54.3999 110.605 54.2763 110.971 54.2763C111.342 54.2763 111.657 54.3999 111.917 54.647C112.182 54.8899 112.314 55.1861 112.314 55.5355C112.314 55.8807 112.182 56.1768 111.917 56.424C111.657 56.6669 111.342 56.7884 110.971 56.7884ZM119.404 58.1818V59.9716H113.76V58.1818H119.404ZM115.153 55.8295H117.467V65.0469C117.467 65.358 117.514 65.5966 117.608 65.7628C117.706 65.9247 117.834 66.0355 117.991 66.0952C118.149 66.1548 118.324 66.1847 118.516 66.1847C118.661 66.1847 118.793 66.174 118.912 66.1527C119.036 66.1314 119.129 66.1122 119.193 66.0952L119.583 67.9041C119.46 67.9467 119.283 67.9936 119.053 68.0447C118.827 68.0959 118.55 68.1257 118.222 68.1342C117.642 68.1513 117.12 68.0639 116.656 67.8722C116.191 67.6761 115.822 67.3736 115.55 66.9645C115.281 66.5554 115.149 66.044 115.153 65.4304V55.8295ZM122.778 71.6818C122.462 71.6818 122.17 71.6563 121.902 71.6051C121.638 71.5582 121.427 71.5028 121.269 71.4389L121.806 69.6364C122.143 69.7344 122.443 69.7813 122.707 69.777C122.971 69.7727 123.204 69.6896 123.404 69.5277C123.608 69.37 123.781 69.1058 123.922 68.7351L124.12 68.2045L120.559 58.1818H123.014L125.277 65.5966H125.379L127.648 58.1818H130.109L126.178 69.1889C125.995 69.7088 125.752 70.1541 125.449 70.5249C125.147 70.8999 124.776 71.1854 124.337 71.3814C123.903 71.5817 123.383 71.6818 122.778 71.6818ZM147.483 59.326H145.092C145.024 58.9339 144.898 58.5866 144.715 58.2841C144.532 57.9773 144.304 57.7173 144.031 57.5043C143.758 57.2912 143.447 57.1314 143.098 57.0249C142.753 56.9141 142.38 56.8587 141.979 56.8587C141.268 56.8587 140.637 57.0376 140.087 57.3956C139.537 57.7493 139.107 58.2692 138.796 58.9553C138.485 59.6371 138.329 60.4702 138.329 61.4545C138.329 62.456 138.485 63.2997 138.796 63.9858C139.111 64.6676 139.542 65.1832 140.087 65.5327C140.637 65.8778 141.265 66.0504 141.973 66.0504C142.365 66.0504 142.731 65.9993 143.072 65.897C143.417 65.7905 143.726 65.6349 143.999 65.4304C144.276 65.2259 144.508 64.9744 144.696 64.6761C144.888 64.3778 145.02 64.0369 145.092 63.6534L147.483 63.6662C147.393 64.2884 147.199 64.8722 146.901 65.4176C146.607 65.9631 146.221 66.4446 145.744 66.8622C145.267 67.2756 144.709 67.5994 144.069 67.8338C143.43 68.0639 142.721 68.179 141.941 68.179C140.79 68.179 139.763 67.9126 138.86 67.38C137.956 66.8473 137.245 66.0781 136.725 65.0724C136.205 64.0668 135.945 62.8608 135.945 61.4545C135.945 60.044 136.207 58.8381 136.731 57.8366C137.256 56.831 137.969 56.0618 138.873 55.5291C139.776 54.9964 140.799 54.7301 141.941 54.7301C142.67 54.7301 143.347 54.8324 143.974 55.0369C144.6 55.2415 145.158 55.5419 145.648 55.9382C146.138 56.3303 146.541 56.8118 146.856 57.3828C147.176 57.9496 147.385 58.5973 147.483 59.326ZM153.835 68.1918C152.876 68.1918 152.045 67.9808 151.342 67.5589C150.639 67.1371 150.093 66.5469 149.706 65.7884C149.322 65.0298 149.13 64.1435 149.13 63.1293C149.13 62.1151 149.322 61.2266 149.706 60.4638C150.093 59.701 150.639 59.1087 151.342 58.6868C152.045 58.2649 152.876 58.054 153.835 58.054C154.794 58.054 155.625 58.2649 156.328 58.6868C157.031 59.1087 157.574 59.701 157.958 60.4638C158.346 61.2266 158.539 62.1151 158.539 63.1293C158.539 64.1435 158.346 65.0298 157.958 65.7884C157.574 66.5469 157.031 67.1371 156.328 67.5589C155.625 67.9808 154.794 68.1918 153.835 68.1918ZM153.848 66.3381C154.368 66.3381 154.802 66.1953 155.152 65.9098C155.501 65.62 155.761 65.2322 155.931 64.7464C156.106 64.2607 156.194 63.7195 156.194 63.1229C156.194 62.522 156.106 61.9787 155.931 61.4929C155.761 61.0028 155.501 60.6129 155.152 60.3232C154.802 60.0334 154.368 59.8885 153.848 59.8885C153.315 59.8885 152.872 60.0334 152.518 60.3232C152.169 60.6129 151.907 61.0028 151.732 61.4929C151.561 61.9787 151.476 62.522 151.476 63.1229C151.476 63.7195 151.561 64.2607 151.732 64.7464C151.907 65.2322 152.169 65.62 152.518 65.9098C152.872 66.1953 153.315 66.3381 153.848 66.3381ZM165.476 58.1818V59.9716H159.672V58.1818H165.476ZM161.123 68V57.255C161.123 56.5945 161.26 56.0447 161.532 55.6058C161.809 55.1669 162.18 54.8388 162.645 54.6214C163.109 54.4041 163.625 54.2955 164.192 54.2955C164.592 54.2955 164.948 54.3274 165.259 54.3913C165.57 54.4553 165.8 54.5128 165.949 54.5639L165.489 56.3537C165.391 56.3239 165.268 56.294 165.118 56.2642C164.969 56.2301 164.803 56.2131 164.62 56.2131C164.189 56.2131 163.885 56.3175 163.706 56.5263C163.531 56.7308 163.444 57.0249 163.444 57.4084V68H161.123ZM172.262 58.1818V59.9716H166.458V58.1818H172.262ZM167.909 68V57.255C167.909 56.5945 168.045 56.0447 168.318 55.6058C168.595 55.1669 168.965 54.8388 169.43 54.6214C169.894 54.4041 170.41 54.2955 170.977 54.2955C171.377 54.2955 171.733 54.3274 172.044 54.3913C172.355 54.4553 172.585 54.5128 172.735 54.5639L172.274 56.3537C172.176 56.3239 172.053 56.294 171.904 56.2642C171.754 56.2301 171.588 56.2131 171.405 56.2131C170.975 56.2131 170.67 56.3175 170.491 56.5263C170.316 56.7308 170.229 57.0249 170.229 57.4084V68H167.909ZM178.051 68.1918C177.067 68.1918 176.217 67.9872 175.501 67.5781C174.789 67.1648 174.241 66.581 173.858 65.8267C173.474 65.0682 173.283 64.1754 173.283 63.1484C173.283 62.1385 173.474 61.2521 173.858 60.4893C174.246 59.7223 174.787 59.1257 175.482 58.6996C176.176 58.2692 176.992 58.054 177.93 58.054C178.535 58.054 179.106 58.152 179.643 58.348C180.184 58.5398 180.661 58.8381 181.075 59.2429C181.492 59.6477 181.82 60.1634 182.059 60.7898C182.298 61.4119 182.417 62.1534 182.417 63.0142V63.7237H174.369V62.1641H180.199C180.195 61.7209 180.099 61.3267 179.911 60.9815C179.724 60.6321 179.462 60.3572 179.125 60.157C178.793 59.9567 178.405 59.8565 177.962 59.8565C177.489 59.8565 177.073 59.9716 176.715 60.2017C176.357 60.4276 176.078 60.7259 175.878 61.0966C175.682 61.4631 175.582 61.8658 175.577 62.3047V63.6662C175.577 64.2372 175.682 64.7273 175.891 65.1364C176.099 65.5412 176.391 65.8523 176.766 66.0696C177.141 66.2827 177.58 66.3892 178.083 66.3892C178.42 66.3892 178.724 66.3423 178.997 66.2486C179.27 66.1506 179.506 66.0078 179.707 65.8203C179.907 65.6328 180.058 65.4006 180.161 65.1236L182.321 65.3665C182.185 65.9375 181.925 66.4361 181.541 66.8622C181.162 67.2841 180.676 67.6122 180.084 67.8466C179.491 68.0767 178.814 68.1918 178.051 68.1918ZM188.721 68.1918C187.737 68.1918 186.887 67.9872 186.171 67.5781C185.459 67.1648 184.911 66.581 184.528 65.8267C184.144 65.0682 183.953 64.1754 183.953 63.1484C183.953 62.1385 184.144 61.2521 184.528 60.4893C184.916 59.7223 185.457 59.1257 186.151 58.6996C186.846 58.2692 187.662 58.054 188.6 58.054C189.205 58.054 189.776 58.152 190.313 58.348C190.854 58.5398 191.331 58.8381 191.744 59.2429C192.162 59.6477 192.49 60.1634 192.729 60.7898C192.968 61.4119 193.087 62.1534 193.087 63.0142V63.7237H185.039V62.1641H190.869C190.865 61.7209 190.769 61.3267 190.581 60.9815C190.394 60.6321 190.132 60.3572 189.795 60.157C189.463 59.9567 189.075 59.8565 188.632 59.8565C188.159 59.8565 187.743 59.9716 187.385 60.2017C187.027 60.4276 186.748 60.7259 186.548 61.0966C186.352 61.4631 186.252 61.8658 186.247 62.3047V63.6662C186.247 64.2372 186.352 64.7273 186.561 65.1364C186.769 65.5412 187.061 65.8523 187.436 66.0696C187.811 66.2827 188.25 66.3892 188.753 66.3892C189.09 66.3892 189.394 66.3423 189.667 66.2486C189.94 66.1506 190.176 66.0078 190.377 65.8203C190.577 65.6328 190.728 65.4006 190.83 65.1236L192.991 65.3665C192.855 65.9375 192.595 66.4361 192.211 66.8622C191.832 67.2841 191.346 67.6122 190.754 67.8466C190.161 68.0767 189.484 68.1918 188.721 68.1918Z" fill="#263C6B"/>
<path d="M49.6904 28.3264C49.6197 28.1181 49.4895 27.9351 49.316 27.7999C49.1424 27.6648 48.9331 27.5834 48.7139 27.5659L42.3002 27.0563L39.5249 20.9126C39.4365 20.7148 39.2927 20.5467 39.1109 20.4287C38.9291 20.3107 38.7171 20.2479 38.5004 20.2478C38.2836 20.2477 38.0715 20.3103 37.8896 20.428C37.7077 20.5458 37.5637 20.7137 37.4751 20.9115L34.6997 27.0563L28.2861 27.5659C28.0706 27.5829 27.8646 27.6617 27.6927 27.7928C27.5209 27.9239 27.3904 28.1017 27.3169 28.305C27.2435 28.5083 27.2301 28.7285 27.2785 28.9392C27.3269 29.1498 27.4349 29.3421 27.5897 29.493L32.3294 34.1134L30.6531 41.3719C30.6022 41.5916 30.6185 41.8215 30.6999 42.0319C30.7814 42.2422 30.9241 42.4232 31.1097 42.5514C31.2952 42.6796 31.515 42.749 31.7405 42.7507C31.9661 42.7525 32.1869 42.6864 32.3744 42.561L38.5 38.4773L44.6256 42.561C44.8173 42.6882 45.0432 42.7537 45.2732 42.7487C45.5032 42.7436 45.7261 42.6683 45.9119 42.5328C46.0978 42.3973 46.2377 42.2081 46.3129 41.9907C46.388 41.7733 46.3948 41.5381 46.3322 41.3168L44.2746 34.1168L49.3776 29.5245C49.7118 29.223 49.8344 28.7528 49.6904 28.3264V28.3264Z" fill="#FFD233"/>
<path d="M76.6904 28.3264C76.6197 28.1181 76.4895 27.9351 76.316 27.7999C76.1425 27.6648 75.9332 27.5834 75.7139 27.5659L69.3003 27.0563L66.5249 20.9126C66.4365 20.7148 66.2928 20.5467 66.111 20.4287C65.9292 20.3107 65.7171 20.2479 65.5004 20.2478C65.2837 20.2477 65.0716 20.3103 64.8896 20.428C64.7077 20.5458 64.5638 20.7137 64.4752 20.9115L61.6998 27.0563L55.2862 27.5659C55.0707 27.5829 54.8647 27.6617 54.6928 27.7928C54.5209 27.9239 54.3904 28.1017 54.317 28.305C54.2435 28.5083 54.2302 28.7285 54.2785 28.9392C54.3269 29.1498 54.435 29.3421 54.5898 29.493L59.3294 34.1134L57.6532 41.3719C57.6023 41.5916 57.6186 41.8215 57.7 42.0319C57.7814 42.2422 57.9241 42.4232 58.1097 42.5514C58.2952 42.6796 58.515 42.749 58.7406 42.7507C58.9661 42.7525 59.1869 42.6864 59.3744 42.561L65.5 38.4773L71.6257 42.561C71.8173 42.6882 72.0433 42.7537 72.2732 42.7487C72.5032 42.7436 72.7261 42.6683 72.912 42.5328C73.0978 42.3973 73.2378 42.2081 73.3129 41.9907C73.388 41.7733 73.3948 41.5381 73.3323 41.3168L71.2747 34.1168L76.3777 29.5245C76.7118 29.223 76.8344 28.7528 76.6904 28.3264V28.3264Z" fill="#FFD233"/>
<path d="M103.69 28.3264C103.62 28.1181 103.49 27.9351 103.316 27.7999C103.142 27.6648 102.933 27.5834 102.714 27.5659L96.3003 27.0563L93.5249 20.9126C93.4365 20.7148 93.2928 20.5467 93.111 20.4287C92.9292 20.3107 92.7171 20.2479 92.5004 20.2478C92.2837 20.2477 92.0716 20.3103 91.8896 20.428C91.7077 20.5458 91.5638 20.7137 91.4752 20.9115L88.6998 27.0563L82.2862 27.5659C82.0707 27.5829 81.8647 27.6617 81.6928 27.7928C81.5209 27.9239 81.3904 28.1017 81.317 28.305C81.2435 28.5083 81.2302 28.7285 81.2785 28.9392C81.3269 29.1498 81.435 29.3421 81.5898 29.493L86.3294 34.1134L84.6532 41.3719C84.6023 41.5916 84.6186 41.8215 84.7 42.0319C84.7814 42.2422 84.9241 42.4232 85.1097 42.5514C85.2952 42.6796 85.515 42.749 85.7406 42.7507C85.9661 42.7525 86.1869 42.6864 86.3744 42.561L92.5 38.4773L98.6257 42.561C98.8173 42.6882 99.0433 42.7537 99.2732 42.7487C99.5032 42.7436 99.7261 42.6683 99.912 42.5328C100.098 42.3973 100.238 42.2081 100.313 41.9907C100.388 41.7733 100.395 41.5381 100.332 41.3168L98.2747 34.1168L103.378 29.5245C103.712 29.223 103.834 28.7528 103.69 28.3264V28.3264Z" fill="#FFD233"/>
<path d="M130.69 28.3264C130.62 28.1181 130.49 27.9351 130.316 27.7999C130.142 27.6648 129.933 27.5834 129.714 27.5659L123.3 27.0563L120.525 20.9126C120.437 20.7148 120.293 20.5467 120.111 20.4287C119.929 20.3107 119.717 20.2479 119.5 20.2478C119.284 20.2477 119.072 20.3103 118.89 20.428C118.708 20.5458 118.564 20.7137 118.475 20.9115L115.7 27.0563L109.286 27.5659C109.071 27.5829 108.865 27.6617 108.693 27.7928C108.521 27.9239 108.39 28.1017 108.317 28.305C108.243 28.5083 108.23 28.7285 108.279 28.9392C108.327 29.1498 108.435 29.3421 108.59 29.493L113.329 34.1134L111.653 41.3719C111.602 41.5916 111.619 41.8215 111.7 42.0319C111.781 42.2422 111.924 42.4232 112.11 42.5514C112.295 42.6796 112.515 42.749 112.741 42.7507C112.966 42.7525 113.187 42.6864 113.374 42.561L119.5 38.4773L125.626 42.561C125.817 42.6882 126.043 42.7537 126.273 42.7487C126.503 42.7436 126.726 42.6683 126.912 42.5328C127.098 42.3973 127.238 42.2081 127.313 41.9907C127.388 41.7733 127.395 41.5381 127.332 41.3168L125.275 34.1168L130.378 29.5245C130.712 29.223 130.834 28.7528 130.69 28.3264V28.3264Z" fill="#FFD233"/>
<path d="M138.653 41.3719C138.615 41.5369 138.614 41.7085 138.651 41.8738C138.688 42.0391 138.762 42.1939 138.868 42.3264C138.974 42.459 139.108 42.566 139.26 42.6394C139.413 42.7127 139.581 42.7505 139.75 42.75C139.972 42.7501 140.19 42.6843 140.374 42.561L146.5 38.4773L152.626 42.561C152.817 42.6882 153.043 42.7537 153.273 42.7487C153.503 42.7436 153.726 42.6683 153.912 42.5328C154.098 42.3973 154.238 42.2081 154.313 41.9907C154.388 41.7733 154.395 41.5381 154.332 41.3168L152.275 34.1168L157.378 29.5245C157.541 29.3773 157.658 29.1855 157.713 28.9727C157.769 28.7599 157.761 28.5355 157.69 28.3272C157.62 28.1189 157.49 27.9359 157.316 27.8008C157.142 27.6657 156.933 27.5844 156.714 27.567L150.3 27.0563L147.525 20.9126C147.437 20.7148 147.293 20.5467 147.111 20.4287C146.929 20.3107 146.717 20.2479 146.5 20.2478C146.284 20.2477 146.072 20.3103 145.89 20.428C145.708 20.5458 145.564 20.7137 145.475 20.9115L142.7 27.0563L136.286 27.5659C136.071 27.5829 135.865 27.6617 135.693 27.7928C135.521 27.9239 135.39 28.1017 135.317 28.305C135.243 28.5083 135.23 28.7285 135.279 28.9392C135.327 29.1498 135.435 29.3421 135.59 29.493L140.331 34.1134L138.653 41.3719ZM146.5 24.1076L148.797 29.1938L149.459 29.2466H149.46L153.928 29.601L150.249 32.913L150.247 32.9153L149.727 33.3833L149.919 34.0549V34.0583L151.329 38.9914L146.5 35.7728V24.1076Z" fill="#FFD233"/>
</svg>
